<svg version="1.1" xmlns="http://www.w3.org/2000/svg" xmlns:xlink="http://www.w3.org/1999/xlink" x="0px" y="0px" xml:space="preserve" viewBox="0 0 1080 1080">
<g id="Contenu">
	<g>
    <g>
        <g>
          <path d="M689.7,391.5c10.7,10.8,24.9,16.7,40,16.8c0.1,0,0.1,0,0.2,0c13,0,25.2-4.3,35.2-12.3      c-20.4-32.1-47.3-59.6-79-80.5C667.9,337.7,669,370.7,689.7,391.5z"/>
        </g>
        <g>
          <path class="st4" d="M675.3,407.3c-30.2-30.1-46.8-70-46.7-112.3c0-2.8,0.1-5.5,0.2-8.2c-18.7-6.7-38.4-11.4-58.8-13.8      c-0.7,7.2-1.1,14.5-1.2,21.8c-0.2,58.4,22.6,113.4,64.3,154.8C674.8,491,730.1,513.8,789,514c0.3,0,0.5,0,0.8,0      c5.3,0,10.6-0.2,15.8-0.6c-2-20.5-6.3-40.3-12.6-59.2C750.5,455.1,707.6,439.4,675.3,407.3z"/>
        </g>
        <g>
          <path class="st5" d="M777.7,570.3c-59.7-24.1-113.1-59.5-159-105c-45.8-45.5-81.2-98.5-105.2-157.5      c-4.6-11.3-8.7-22.7-12.4-34.2c-20.1,2.8-39.5,7.8-58,14.7c4.4,14.1,9.4,28.1,15,41.9c27,66.5,66.9,126.1,118.4,177.4      c51.5,51.2,111.6,90.9,178.7,118c10.9,4.4,22,8.5,33.1,12.2c7.2-18.4,12.4-37.7,15.5-57.8C795.1,577.1,786.3,573.8,777.7,570.3z      "/>
        </g>
        <g>
          <path class="st6" d="M748.4,707.1l-376-378.7c-15.7,12.3-30,26.4-42.6,41.9l376.5,379.1C721.8,736.9,735.9,722.7,748.4,707.1z"/>
        </g>
        <g>
          <path class="st7" d="M504.1,576.1c-51.5-51.2-111.6-90.9-178.7-118c-12.7-5.1-25.5-9.7-38.4-13.9c-7,18.4-12.1,37.8-14.9,57.9      c10.4,3.4,20.7,7.2,30.9,11.3c59.7,24.1,113.1,59.5,159,105C507.8,664,543.2,717,567.2,776c4,9.7,7.6,19.6,10.9,29.5      c20.1-3,39.4-8.2,57.8-15.4c-4-12.3-8.4-24.5-13.4-36.6C595.5,687,555.7,627.3,504.1,576.1z"/>
        </g>
        <g>
          <path class="st8" d="M447.5,634.1c-41.5-41.3-96.9-64.2-155.8-64.4c-6.9,0-13.7,0.3-20.4,0.9c2.3,20.5,7,40.2,13.6,59      c2-0.1,4-0.1,6-0.1c41.5,0,83,15.7,114.5,47c30.2,30.1,46.8,70,46.7,112.3c0,1.8-0.1,3.7-0.1,5.5c18.8,6.4,38.6,10.7,59,12.8      c0.5-6,0.8-12,0.8-18.1C512,730.5,489.2,675.5,447.5,634.1z"/>
        </g>
        <g>
          <path class="st9" d="M391,692.2c-20.8-21-54.2-22.2-76.5-3.6c21.1,31.6,48.6,58.5,80.8,78.7c7.8-9.9,12.1-22.1,12.2-34.9      C407.6,717.2,401.7,703,391,692.2z"/>
        </g>
      </g>
    </g>
</g>
</svg>